#define pause_width 20
#define pause_height 20
static unsigned char pause_bits[] = {
   0xf0, 0xf0, 0x00, 0xf0, 0xf0, 0x00, 0xf0, 0xf0, 0x00, 0xf0, 0xf0, 0x00,
   0xf0, 0xf0, 0x00, 0xf0, 0xf0, 0x00, 0xf0, 0xf0, 0x00, 0xf0, 0xf0, 0x00,
   0xf0, 0xf0, 0x00, 0xf0, 0xf0, 0x00, 0xf0, 0xf0, 0x00, 0xf0, 0xf0, 0x00,
   0xf0, 0xf0, 0x00, 0xf0, 0xf0, 0x00, 0xf0, 0xf0, 0x00, 0xf0, 0xf0, 0x00,
   0xf0, 0xf0, 0x00, 0xf0, 0xf0, 0x00, 0xf0, 0xf0, 0x00, 0xf0, 0xf0, 0x00 };
